<svg xmlns="http://www.w3.org/2000/svg" viewBox="0 0 100 100">
  <rect width="100" height="100" rx="16" fill="#2A6B6B"/>
  <g fill="none" stroke="#F5F0EB" stroke-width="2.2" font-family="Georgia,serif">
    <!-- M -->
    <path d="M22 72V32l14 24 14-24v40" stroke-linecap="round" stroke-linejoin="round"/>
    <!-- D -->
    <path d="M42 32h8c12 0 18 8 18 20s-6 20-18 20h-8" stroke-linecap="round"/>
    <!-- S -->
    <path d="M72 38c-2-4-6-6-10-6-5 0-8 3-8 6 0 4 4 5 8 7 5 2 10 4 10 10 0 5-4 9-10 9-5 0-9-2-11-6" stroke-linecap="round"/>
  </g>
</svg>
